<svg xmlns="http://www.w3.org/2000/svg" viewBox="0 0 1957.97 464.63"><defs><style>.cls-1{fill:#2e2727;}.cls-2{fill:#251e1e;}.cls-3{fill:#2f2827;}.cls-4{fill:#c17981;}.cls-5{fill:#e08c95;}.cls-6{fill:#2f2727;}</style></defs><g id="Layer_4" data-name="Layer 4"><path class="cls-1" d="M727.18,40c-9.41-16.14-26.11-28-43.53-34C661.5-1.7,637,4.21,616.35,13.82a90,90,0,0,0-16.2,9.69A66.3,66.3,0,0,0,576.9,48.79c-8.8,17.26-9.91,41.35-4.77,59.87,4.9,17.68,18.66,37.67,32.93,49.12,16.15,13,35.9,16.32,55.91,12.42,36.78-7.18,66.57-34.31,73.75-71.76C738.26,79.94,736.84,56.51,727.18,40Z"/><path class="cls-2" d="M695.48,44.76a39.11,39.11,0,0,0-32.93-13,63.33,63.33,0,0,0-10,2.22c-4.26,1.14-8.11,1-12.46,1.57-6.43.83-11.92,3.82-16.88,7.88C613.28,51.58,603,61.85,601.07,75a23.32,23.32,0,0,0-1.23,8.27c.37,13.73,4.6,24.43,12.37,35.65,6.83,9.85,13.65,20.48,26.14,23.26,11,2.47,23-.67,32.85-5.63,19.68-9.89,35.4-32.92,35.4-55.26C706.59,68.34,704.28,54.73,695.48,44.76Z"/><path class="cls-1" d="M1403.34,35.21c-14.12-14.72-33.79-27.42-53.42-33.12-15.66-4.54-28.75-1.3-40.67,6-22.45,10.45-40.72,32.29-45.54,55.76-2.08,10.11-2.36,20.64-2,30.91.41,11,2.94,18.87,8.2,28.31,9.33,16.75,20,27.05,38.5,33.13,33.68,11,81.7,14.16,107.17-15.46,5.88-6.83,9.56-14.51,10.26-23.54.77-10.14,2.28-20.94,1.63-31.11C1426.27,66.71,1416.57,49,1403.34,35.21Z"/><path class="cls-2" d="M1397.38,83.85c-2-12-7.08-22.84-16.37-31.22-5.46-4.94-12-8.91-18-13.1-5.21-3.61-10.49-7.19-16.74-8.75-11.65-2.91-25.42,1.78-33.42,10.54a9.57,9.57,0,0,0-.87,1.08c-1.77,1.53-3.48,3.21-5.13,4.92-9.57,9.86-15.16,19-17.67,32.83-4.09,22.44,11.35,49.44,34.31,54,21.32,4.2,58.3,6.25,71-16C1400.68,107.16,1399.34,95.56,1397.38,83.85Z"/><path class="cls-3" d="M1061,200c14.88-10.94,33.25-26.37,33.49-46.38,0-.1,0-.19,0-.29,3.16-23-12.46-46.37-31.91-57.26-20.65-11.56-33.74-14.14-51.36-4.52-.6.34-3,2.36-8.28,8.16-7.29,8.05-17.88,4.31-25-3.5-9.49-9.41-47.47-2.25-66.17,18.66-8.66,9.68-14.63,20.41-14.31,33.57.29,12.27,6,22.1,12.59,31.93a41.52,41.52,0,0,0,5.48,8.12c3.31,3.8,7.31,6.6,11.09,9.88,3.55,3.07,6.5,6.58,10.75,8.68l.11.08q11.34,7.43,22.54,15.07c6.23,4.26,13.58,8.28,19.38,13.33-.63,6.27-5.1,12.77-8.32,17.69-4.67,7.13-9.62,12.68-18.58,13.11-14.26.68-27.42-11.89-37.29-21.53a7.49,7.49,0,0,0-6-3.8c-14.67-1.24-9.57,16.34-4.33,22.89a65.89,65.89,0,0,0,30.87,21.28c12.28,4,26.5,4.32,37.93-2.33,8.7-5.06,14.17-13.56,19-22.29,2.61,7.67,5.46,15.13,11.91,20.57,7.75,6.53,18.1,9.66,28.09,10.11,21,1,42.65-11.76,55-28.36,4.64-6.22,5.55-17.34-4.13-19.55-4.42-1-8.15,1.67-11.11,4.49-4.49,4.28-8.62,8.53-13.75,12.09-9,6.24-22.77,14.83-33.29,7.52-8.67-6-20.38-20.08-18.28-31.64C1024.4,222.84,1043.55,212.81,1061,200Z"/><path class="cls-2" d="M1063.66,122.77c-10.38-12-26-18.51-40.72-15.08-14.45,3.37-20.07,16.72-29,16.19-3.81-.22-15-10.37-24-11.78-14-2.17-29.27,7-39.39,17.52-11.93,12.38-9.84,26.91.45,39.29,9.22,11.1,22.7,23.17,35.89,29.27a10.75,10.75,0,0,0,2.43.79c1,.82,1.93,1.6,2.92,2.37A20.88,20.88,0,0,0,974.1,203q2.21,1.75,4.46,3.45,4.4,3.33,9,6.47a15.57,15.57,0,0,0,3.69,3.43c1.93,1.21,3.84.25,5.58-1a22.23,22.23,0,0,0,5.2-3.28l8.12-5.85c.08-.05.11-.13.18-.19a6.68,6.68,0,0,1,1-.65l-.32.16c.1-.05.17-.11.26-.16,1.72-.7,3.42-1.45,5.08-2.31,7.21-3.72,13.08-9.35,20.27-13.14,12.37-6.51,25.08-16.52,31.84-29.13C1075.06,148.44,1072.68,133.24,1063.66,122.77Z"/><path class="cls-4" d="M1853.27,181.12c-26.57-26.25-61.47-46.59-99.11-50.44-24.78-2.53-49.65,1.48-71.45,12.26-18.28,7.83-35,21.54-47.55,34.67-25,26.11-36.5,59.11-46.13,93.21-5.24,18.53-8.56,37.84-5.48,57s10.55,37.06,19.85,54c17.51,31.89,44,54.34,76.88,69.41,35.7,16.36,75.27,18.44,111.43,2.1,16.17-7.31,31.8-16.5,45.42-27.92,14.41-12.06,23.91-27.48,32.39-44.06,16.85-33,29.68-69.37,28-106.91C1895.82,237.48,1879.28,206.81,1853.27,181.12Z"/><path class="cls-5" d="M1847.78,233c-12.53-25.58-34.51-43.24-59.84-55.34-13-6.19-28.33-14.35-43.12-12.94-11.3,1.07-22.65,6.35-33.43,11.15a13.13,13.13,0,0,0-14.49-.62c-45.44,25.66-67,72.41-71.82,122.82-2.5,26,.14,52.41,13.55,75.3,12.42,21.21,33,37.1,55.85,45.69,24.15,9.1,52.64,11.77,77.85,5.48,12.69-3.17,24.87-10.52,35.53-17.95s14.66-17.62,22.33-27.61c15.93-20.74,24.89-47.13,28.64-73A124.45,124.45,0,0,0,1847.78,233Z"/><path class="cls-6" d="M1955.64,207.52c-2.85-1.87-6.33-1.84-9.59-1.45-4,.47-8,1.12-11.94,1.87a187.29,187.29,0,0,0-22.7,6c-7.45,2.41-14.84,5-22.43,6.92a186,186,0,0,1-22.7,4.15c-7.23.92-14.48,1.55-21.74,2.13-3.56-.08-7.12.18-10.26,1.75-4.62,2.31-7.74,7.7-5.82,12.82,2.11,5.61,8,7.36,13.48,7.52a151.12,151.12,0,0,0,17-.62,222.09,222.09,0,0,0,35.63-6.19,267,267,0,0,0,32.36-10,137.31,137.31,0,0,0,17-7.88c4.66-2.58,11.45-5.75,13.61-11A4.67,4.67,0,0,0,1955.64,207.52Z"/><path class="cls-6" d="M1937.06,305.36c-5-.32-10.07.7-14.92,1.86-9.55,2.29-19,4.7-28.68,6.29-10.79,1.77-21.67,3-32.54,4.14s-22.07,3-32.94,1.7a5.64,5.64,0,0,0-2.78.35,11.79,11.79,0,0,0-3.21.79c-4.11,1.67-7.39,5.5-7.44,10.08,0,4.41,3.08,8.32,7,10.08,4.41,2,9.51,1.66,14.23,1.62,9.74-.1,19.49-.71,29.21-1.37a151.91,151.91,0,0,0,28.59-5.15c9.39-2.46,18.79-5,28-8,7.71-2.57,15.87-5.7,20.8-12.53C1945.82,310.41,1942.45,305.7,1937.06,305.36Z"/><path class="cls-4" d="M415.47,219c-4.78-12.73-11.86-24-19.84-34.93-8.23-11.29-16.57-22.73-26.7-32.42-34.32-32.83-84.92-45.09-130.67-33.47a10,10,0,0,0-3.1,1.35c-20.57,2.77-40.74,7.19-59.67,16.36A160.94,160.94,0,0,0,90.08,241c-6.91,27.68-12,58.78-5.8,87,10.4,47.68,48.63,90.94,91.38,113,46.33,23.93,98.46,20.42,144.64-2,26.18-12.69,52.11-30.88,71.51-52.73,20-22.56,29.36-55.18,34.21-84.33a10.65,10.65,0,0,0,.08-3c0-.23,0-.46,0-.7C425.83,271.66,424.94,244.12,415.47,219Z"/><path class="cls-5" d="M388,242.75c-2.09-15.17-8.43-27.16-17.56-39.24-17.77-23.51-40.13-45.12-69-53.74-34.1-10.19-70.65,4.19-103.48,13a11.81,11.81,0,0,0-1.82.66C173.16,171,157,187.59,143.5,209c-15.53,24.65-25.85,50.62-26,80.11-.28,54.64,34,104.15,85,123.58a134.09,134.09,0,0,0,84,3.61c28.35-7.89,53.76-27,73.3-48.65s28.6-49.08,30.1-77.92A251.35,251.35,0,0,0,388,242.75Z"/><path class="cls-6" d="M146.49,284.42c-4.17-2.77-9.73-2.36-14.33-1-4.77,1.38-9,4.11-13.72,5.65s-9.49,1.89-14.32,2.24c-22.47,1.63-45.24,1.32-67.11-4.6-.12,0-.22,0-.33-.05-7.13-2.57-16.56-3.74-18.53,4.37-1.25,5.14,3.77,8,7.43,10.28a80.07,80.07,0,0,0,12,6.11c18.46,7.53,38.64,8.84,58.33,7a186.19,186.19,0,0,0,29.87-4.86,75.11,75.11,0,0,0,13.88-5.07c3.84-1.87,8-4.28,9.72-8.4S150.37,287,146.49,284.42Z"/><path class="cls-6" d="M152.63,194.36c-4.85-2.44-11.07-1.4-16.16-.47-5.94,1.07-11.78,2.67-17.74,3.7s-12.07,1.75-18.15,2.29c-13.69,1.23-27.56,2-41.31,2.11a110.48,110.48,0,0,1-35.54-5.36,34.69,34.69,0,0,0-8.21-3.15c-4.17-1-12-2.59-14.67,2s1.47,10.31,5,13.07a60.53,60.53,0,0,0,14.37,7.78c22.15,8.88,46.66,11,70.29,9a304.27,304.27,0,0,0,36.51-5.74c5.92-1.26,11.85-2.55,17.7-4.06,4.85-1.25,10-3.5,12.07-8.41S157.49,196.8,152.63,194.36Z"/></g></svg>