<svg xmlns="http://www.w3.org/2000/svg" viewBox="0 0 2560 2560"><defs><style>.cls-1{fill:#ecece6;}.cls-2{fill:#2e2727;}.cls-3{fill:#251e1e;}.cls-4{fill:#2f2827;}.cls-5{fill:#c17981;}.cls-6{fill:#e08c95;}.cls-7{fill:#2f2727;}</style></defs><g id="Layer_4" data-name="Layer 4"><g id="Layer_2-2" data-name="Layer 2"><g id="Layer_1-2" data-name="Layer 1-2"><path class="cls-1" d="M1232.89,297.2A685.09,685.09,0,0,1,1684.35,23.77C2088.42-44,2569.21,270.9,2559.87,791.91c-1.53,74.56-2.83,149.54-10.22,223.66-19.13,192.8-55,383-137.81,558.83-71.94,151.5-156.28,296.91-232.79,446.67-95.85,188.24-245.39,326.69-410.8,450.59-89.34,67.16-185.63,96.72-297.13,53.25-40.21-15.65-85.21-16.3-127.16-28-119.11-33.25-241-61.73-356-105.2a2336.08,2336.08,0,0,1-611.21-354.29A918.34,918.34,0,0,1,77.2,1639.83C4.82,1444-9.1,1242.06,4.82,1033.18c23.25-351,415.8-711.63,751-660.77,73.68,11.74,147.37,22.61,220,37.39,47.6,10.43,93.46,27.82,145.41,43.47C1161.16,397,1195.94,346.33,1232.89,297.2ZM2314.25,713.66c-39.78-231-201.27-401-426.46-436.24-268-41.73-434.71,52.6-563.61,240.84-31.3,46.08-54.77,97.37-86.94,143-35,49.56-72.6,59.34-130.42,39.78a1231.83,1231.83,0,0,1-121.5-47.17c-132.15-60-270.83-43.91-401.24-12.17-202.58,48.69-308.87,202.36-352.34,394.5-39.13,173.89-.44,347.78,61.95,511.88,32.6,90,102.59,155.85,173.88,215.4a2529.76,2529.76,0,0,0,930.73,496.23c105.2,30.22,194.54,25,275.83-52.6,76.29-72.59,163-136.06,230-216.27,210.18-253.66,340.6-547.09,405.8-869.43,12.61-60.65,12.39-123.46,21.74-227.79C2328.6,862.34,2326.64,786.48,2314.25,713.66Z"/><path class="cls-1" d="M2309.47,1121c-64.56,322.78-194.75,616.21-405.81,869.44-67,80.2-153.67,143.67-230,216.27-81.29,77.6-170.62,82.81-275.82,52.6a2529.84,2529.84,0,0,1-931.38-495.8C396.06,1704,326.07,1638.09,292.6,1548.1c-61.08-164.1-100.2-338-61.08-511.88,43.26-192.14,149.76-345.81,352.34-394.5C715.14,610.42,853,593.9,985.1,653.89a1231,1231,0,0,0,121.51,47.17c58.25,19.56,95.85,9.78,130.41-39.78,32-45.65,55.43-96.94,87-143,128.89-188.24,295.6-282.79,563.61-240.84,225.18,35.22,386.68,205.19,426.45,436.24,12.61,72.82,14.57,147.59,17.61,180C2322.29,998,2322.51,1060.78,2309.47,1121Z"/></g></g><path class="cls-2" d="M968.54,1107.36c-13.16-15.7-33.4-25.5-53.34-28.76-25.35-4.14-50.72,6.78-71.28,21a97.76,97.76,0,0,0-15.72,13.47,72.58,72.58,0,0,0-20.46,31.61c-6.32,20.28-3.07,46.52,5.91,65.59,8.57,18.21,27.12,37.26,44.66,47,19.86,11,41.82,11,62.73,3.09,38.42-14.55,65.61-49.38,66.45-91.19C987.9,1148.52,982,1123.47,968.54,1107.36Z"/><path class="cls-3" d="M935.16,1118.41a42.84,42.84,0,0,0-38-8,69.84,69.84,0,0,0-10.42,4.25c-4.39,2-8.58,2.6-13.17,4-6.8,2.08-12.19,6.34-16.79,11.64-9.21,10.61-18.43,23.62-18.08,38.21a25.82,25.82,0,0,0,.2,9.16c2.93,14.77,9.49,25.55,20,36.24,9.19,9.39,18.54,19.62,32.55,20.32,12.38.62,24.71-5,34.46-12.16,19.44-14.32,32.18-42.12,28-66.27C951.53,1141.84,946.52,1127.56,935.16,1118.41Z"/><path class="cls-2" d="M1698.47,977.3c-18-13.3-41.58-23.39-63.85-25.92-17.77-2-31.31,3.91-42.85,14-22.34,15.44-38,42.43-38.93,68.69-.37,11.3,1.27,22.74,3.59,33.77,2.46,11.76,6.66,19.85,14.09,29.08,13.18,16.39,26.63,25.55,47.73,28.69,38.45,5.73,90.93.22,113-36.5,5.09-8.48,7.66-17.45,6.73-27.34-1-11.1-1.4-23.06-4-33.93C1729.08,1007.11,1715.32,989.77,1698.47,977.3Z"/><path class="cls-3" d="M1701,1031c-4.39-12.64-11.88-23.37-23.46-30.72-6.82-4.33-14.6-7.42-21.88-10.83-6.31-2.95-12.68-5.83-19.72-6.36-13.13-1-27.15,6.62-34.18,17.56a12.39,12.39,0,0,0-.73,1.32c-1.63,2-3.17,4.12-4.64,6.27-8.52,12.43-12.87,23.38-13,38.75-.27,25,21.41,51.34,47.06,52,23.82.61,64.17-4,73.74-30.39C1708.89,1055.56,1705.3,1043.27,1701,1031Z"/><path class="cls-4" d="M1358.86,1218.7c14.06-14.57,31.07-34.64,27.62-56.31,0-.11-.06-.2-.08-.31-.83-25.44-22-47.81-45.07-56-24.45-8.68-39.07-9-56.34,4.61-.59.47-2.83,3.1-7.44,10.34-6.39,10-18.54,8-27.64.83-12-8.41-51.72,6.34-68.07,32.39-7.58,12.07-12,24.76-9.27,38.94,2.59,13.2,10.62,22.76,19.51,32.17a45,45,0,0,0,7.43,7.77c4.27,3.5,9.11,5.79,13.8,8.63,4.41,2.66,8.25,5.91,13.23,7.39l.13.07q13.63,5.94,27.15,12.12c7.52,3.46,16.21,6.45,23.41,10.83.48,6.89-3.16,14.75-5.73,20.66-3.72,8.57-8,15.48-17.66,17.6-15.28,3.37-31.83-7.79-44.27-16.38a8.26,8.26,0,0,0-7.2-3c-16.09,1.37-7.33,19.44-.45,25.54a72.27,72.27,0,0,0,37.3,17.31c14,2,29.43-.24,40.56-9.53,8.47-7.08,12.8-17.28,16.44-27.61,4.23,7.8,8.69,15.35,16.66,20,9.59,5.63,21.35,7.1,32.23,5.74,22.87-2.84,43.94-20.59,54.25-40.82,3.87-7.58,2.8-19.76-8.07-20.37-5-.28-8.5,3.31-11.18,6.91-4.06,5.45-7.74,10.81-12.63,15.6-8.57,8.42-21.87,20.24-34.59,14.28-10.48-4.92-25.74-17.93-25.6-30.81C1323.57,1250.11,1342.41,1235.74,1358.86,1218.7Z"/><path class="cls-3" d="M1347.51,1134.7c-13.44-11.09-31.52-15.21-46.79-8.77-15,6.31-18.6,21.77-28.38,22.85-4.16.47-18.09-8.44-28.17-8.29-15.51.25-30.34,13-39.34,26.22-10.6,15.58-5.66,30.9,7.75,42.39,12,10.28,28.81,20.84,44.2,25a12.06,12.06,0,0,0,2.77.41c1.18.71,2.38,1.37,3.59,2a24.45,24.45,0,0,0,2.4,1.42q2.7,1.48,5.45,2.91c3.58,1.86,7.21,3.63,10.87,5.34a17.16,17.16,0,0,0,4.62,3c2.31,1,4.2-.43,5.86-2.07,1.94-1.08,3.55-3,5-4.51q3.86-3.9,7.7-7.82a1.82,1.82,0,0,0,.15-.23,7.5,7.5,0,0,1,1-.89l-.32.22c.1-.07.17-.14.26-.21,1.72-1.08,3.42-2.21,5.05-3.44,7.12-5.35,12.42-12.53,19.49-18,12.17-9.32,24-22.48,29-37.36C1364.58,1160.33,1359.2,1144.35,1347.51,1134.7Z"/><path class="cls-5" d="M2211.73,1051.88c-33.57-23.46-75.05-39-116.44-36.2-27.25,1.84-53.39,10.77-75,26.45-18.31,11.84-33.85,29.75-45,46.26-22.14,32.82-28.52,70.63-32.64,109.26-2.23,21-2.25,42.48,4.62,62.67s18.25,38.1,31.43,54.69c24.81,31.24,57.62,50.61,95.92,60.82,41.6,11.09,84.75,6,120.82-18.31,16.13-10.89,31.32-23.72,43.94-38.57,13.34-15.7,20.76-34.12,26.86-53.61,12.12-38.76,19.27-80.46,10.49-120.72C2268.13,1104.93,2244.58,1074.84,2211.73,1051.88Z"/><path class="cls-6" d="M2215.37,1108.93c-18.26-25.33-45.28-40.36-74.9-48.76-15.16-4.3-33.27-10.27-49-6-12,3.25-23.31,11-34.08,18.23a14.39,14.39,0,0,0-15.78,2c-44.36,36.12-59,90.63-54.92,146,2.09,28.53,9.83,56.63,28.55,78.89,17.34,20.62,42.56,34,68.8,39.06,27.79,5.38,59.08,3,85.16-8.46,13.13-5.77,24.93-16,35.09-26s12.58-21.75,19-34c13.38-25.36,18.2-55.54,17.47-84.18C2240.09,1158.07,2231.61,1131.45,2215.37,1108.93Z"/><path class="cls-7" d="M2327.25,1061.51c-3.42-1.5-7.19-.82-10.63.2-4.24,1.25-8.42,2.69-12.56,4.23a205.94,205.94,0,0,0-23.43,10.68c-7.6,4-15.12,8.14-23,11.63a202.82,202.82,0,0,1-23.77,8.68c-7.64,2.33-15.37,4.35-23.11,6.32-3.86.57-7.66,1.5-10.76,3.78-4.56,3.35-7,9.76-3.92,14.94,3.32,5.67,10,6.46,15.95,5.63a164.74,164.74,0,0,0,18.28-3.81,243.4,243.4,0,0,0,37.37-13.27,294,294,0,0,0,33.14-16.76,153.81,153.81,0,0,0,16.88-11.65c4.56-3.66,11.31-8.34,12.68-14.38A5.12,5.12,0,0,0,2327.25,1061.51Z"/><path class="cls-7" d="M2325.24,1170.69c-5.47.58-10.75,2.61-15.78,4.77-9.89,4.24-19.65,8.58-29.83,12.09-11.34,3.9-22.86,7.26-34.41,10.49s-23.3,7.33-35.29,7.92a6.11,6.11,0,0,0-2.94.89,13.19,13.19,0,0,0-3.32,1.45c-4.13,2.57-7,7.31-6.18,12.27.77,4.77,4.87,8.42,9.42,9.6,5.14,1.32,10.59,0,15.69-.88,10.51-1.9,20.93-4.36,31.31-6.87s20.17-6.41,30-10.85,19.4-8.84,28.8-13.87c7.85-4.2,16.1-9.09,20.16-17.39C2335.65,1174.53,2331.14,1170.06,2325.24,1170.69Z"/><path class="cls-5" d="M664.71,1358.42c-7.53-12.88-17.26-23.73-27.9-34.09-11-10.68-22.12-21.51-34.85-30.11-43.17-29.14-100.12-33-147.41-12a11,11,0,0,0-3.11,2c-21.71,6.8-42.71,15.3-61.47,28.7a176.5,176.5,0,0,0-72.88,129.44c-2.36,31.19-2.06,65.73,9.79,95.06,20.05,49.62,69.37,89.31,119.64,105.27,54.5,17.31,110.2,3.88,156-28.85,26-18.55,50.63-43,67.56-70.2,17.48-28.09,21.53-65.06,21.39-97.47a12.14,12.14,0,0,0-.47-3.28c0-.25-.06-.5-.1-.77C685.64,1413.47,679.58,1383.86,664.71,1358.42Z"/><path class="cls-6" d="M639.41,1389.21c-5.06-16-14.13-27.8-26.24-39.17-23.54-22.13-51.7-41.35-84.5-45.34-38.73-4.71-75.58,17.58-109.43,33.2a13.55,13.55,0,0,0-1.85,1c-23.44,12.41-37.89,33.32-48.49,58.89-12.23,29.52-18.59,59.5-13.3,91.39,9.79,59.11,56,106.3,114.65,117.88a147.07,147.07,0,0,0,91.52-11.63c29.18-13.77,53.12-39.07,70.23-66.12s21.85-58.34,18.14-89.78A276,276,0,0,0,639.41,1389.21Z"/><path class="cls-7" d="M386.08,1478.87c-5-2.22-11-.76-15.69,1.54-4.89,2.37-9,6.11-13.78,8.64s-9.91,3.8-15.06,5.07c-24,5.91-48.66,9.79-73.39,7.43h-.36c-8.19-1.46-18.59-1-19.23,8.14-.4,5.79,5.56,8,9.94,9.75a87.58,87.58,0,0,0,14.14,4.37c21.34,4.73,43.39,2.42,64.34-3.18a205.46,205.46,0,0,0,31.39-10.78,82.56,82.56,0,0,0,14.06-8c3.81-2.73,7.83-6.09,8.95-10.88S390.74,1480.93,386.08,1478.87Z"/><path class="cls-7" d="M376.07,1380.39c-5.69-1.74-12.22.53-17.55,2.47-6.23,2.27-12.24,5.07-18.49,7.28s-12.73,4.12-19.19,5.84c-14.57,3.86-29.42,7.25-44.26,9.9a121,121,0,0,1-39.41.77,37.71,37.71,0,0,0-9.45-1.87c-4.7-.31-13.49-.58-15.48,4.88s3.48,10.88,7.86,13.2a65.82,65.82,0,0,0,17,5.75c25.59,5.51,52.47,3.29,77.63-3.3a331.46,331.46,0,0,0,38.41-13c6.16-2.45,12.33-4.94,18.38-7.66,5-2.24,10.13-5.62,11.48-11.31S381.78,1382.13,376.07,1380.39Z"/></g></svg>