<svg id="Layer_1" data-name="Layer 1" xmlns="http://www.w3.org/2000/svg" xmlns:xlink="http://www.w3.org/1999/xlink" viewBox="0 0 1080 1080"><defs><style>.cls-1{fill:none;}.cls-2{clip-path:url(#clip-path);}.cls-3{fill:#fff;}</style><clipPath id="clip-path"><rect class="cls-1" x="-215.09" y="-214.09" width="1510.17" height="1510.17"/></clipPath></defs><g id="g17"><g id="g19"><g class="cls-2"><g id="g21"><g id="g27"><path id="path29" class="cls-3" d="M1079.35,541C1079.35,243.13,837.87,1.65,540,1.65S.65,243.13.65,541c0,252.94,174.14,465.18,409.06,523.46V705.82H298.49V541H409.71V470c0-183.58,83.07-268.66,263.3-268.66,34.17,0,93.13,6.7,117.25,13.4v149.4c-12.73-1.34-34.84-2-62.31-2-88.44,0-122.61,33.5-122.61,120.6V541H781.51L751.25,705.82H605.34V1076.4c267-32.26,474-259.65,474-535.4"/></g><g id="g31"><path id="path33" class="cls-1" d="M751.25,705.82,781.51,541H605.34V482.71c0-87.1,34.17-120.6,122.61-120.6,27.47,0,49.58.67,62.31,2V214.72c-24.12-6.7-83.08-13.4-117.25-13.4-180.23,0-263.3,85.09-263.3,268.66v71H298.49V705.82H409.71v358.64A540.29,540.29,0,0,0,540,1080.35a546.71,546.71,0,0,0,65.34-3.95V705.82Z"/></g></g></g></g></g></svg>