<?xml version="1.0" encoding="utf-8"?>
<!-- Generator: Adobe Illustrator 26.0.3, SVG Export Plug-In . SVG Version: 6.00 Build 0)  -->
<svg version="1.1" id="Layer_1" xmlns="http://www.w3.org/2000/svg" xmlns:xlink="http://www.w3.org/1999/xlink" x="0px" y="0px"
	 viewBox="0 0 480 480" style="enable-background:new 0 0 480 480;" xml:space="preserve">
<style type="text/css">
	.st0{fill:#01579B;}
	.st1{fill:#FFFFFF;}
	.st2{fill:#E45219;}
	.st3{fill:#ED8019;}
	.st4{fill:#F3B419;}
	.st5{fill:#F3F319;}
	.st6{fill:#B9FF19;}
	.st7{fill:#80D119;}
	.st8{fill:#20AF20;}
	.st9{fill:#19DDDD;}
	.st10{fill:#1EA0E1;}
	.st11{fill:#1976C3;}
	.st12{fill:#A632B6;}
	.st13{fill:#E137A5;}
	.st14{fill:#FDFCEF;}
</style>
<path class="st0" d="M372,0H108C48.3,0,0,48.3,0,108v25.3V280v92c0,59.6,48.3,108,108,108h264c59.7,0,108-48.4,108-108v-92V133.3
	V108C480,48.3,431.7,0,372,0z"/>
<path class="st1" d="M189.5,189.5c-13.9,0-25.3,11.3-25.3,25.3v164.2c0,13.9,11.3,25.3,25.3,25.3c13.9,0,25.3-11.3,25.3-25.3V214.7
	C214.7,200.8,203.4,189.5,189.5,189.5z"/>
<path class="st2" d="M360,99l-37.9,65.7c-7.5-4.3-16-6.8-25.3-6.8V82.1c11,0,22,1.4,32.7,4.3C340.2,89.3,350.4,93.5,360,99z"/>
<path class="st3" d="M296.8,82.1l0,75.8c-8.6,0-17.3,2.1-25.3,6.7L233.7,99c9.5-5.5,19.7-9.8,30.5-12.6
	C274.8,83.6,285.8,82.1,296.8,82.1z"/>
<path class="st4" d="M233.7,99l37.9,65.7c-7.4,4.3-13.9,10.5-18.5,18.5l-65.6-37.9c5.5-9.5,12.2-18.3,20.1-26.2
	C215.3,111.3,224.1,104.6,233.7,99z"/>
<path class="st5" d="M187.5,145.3l65.7,37.9c-4.3,7.5-6.8,16-6.8,25.3h-75.8c0-11,1.4-22,4.3-32.7
	C177.7,165.1,181.9,154.9,187.5,145.3z"/>
<path class="st6" d="M170.5,208.4l75.8,0c0,8.6,2.1,17.3,6.7,25.3l-65.6,37.9c-5.5-9.5-9.8-19.7-12.6-30.5
	C172,230.5,170.5,219.5,170.5,208.4z"/>
<path class="st7" d="M187.5,271.6l65.7-37.9c4.3,7.4,10.5,13.9,18.5,18.5l-37.9,65.6c-9.5-5.5-18.3-12.2-26.2-20.1
	C199.8,289.9,193,281.2,187.5,271.6z"/>
<path class="st8" d="M233.7,317.8l37.9-65.7c7.5,4.3,16,6.8,25.3,6.8v75.8c-11,0-22-1.4-32.7-4.3
	C253.5,327.5,243.3,323.4,233.7,317.8z"/>
<path class="st9" d="M296.8,334.7l0-75.8c8.6,0,17.3-2.1,25.3-6.7l37.9,65.6c-9.5,5.5-19.7,9.8-30.5,12.6
	C318.9,333.2,307.9,334.7,296.8,334.7z"/>
<path class="st10" d="M360,317.8l-37.9-65.7c7.4-4.3,13.9-10.5,18.5-18.5l65.6,37.9c-5.5,9.5-12.2,18.3-20.1,26.2
	C378.3,305.5,369.6,312.3,360,317.8z"/>
<path class="st11" d="M406.2,271.6l-65.7-37.9c4.3-7.5,6.8-16,6.8-25.3h75.8c0,11-1.4,22-4.3,32.7C416,251.7,411.8,262,406.2,271.6z
	"/>
<path class="st12" d="M423.2,208.4l-75.8,0c0-8.6-2.1-17.3-6.7-25.3l65.6-37.9c5.5,9.5,9.8,19.7,12.6,30.5
	C421.7,186.4,423.2,197.3,423.2,208.4z"/>
<path class="st13" d="M406.2,145.8l-66.2,37c-4.2-7.5-10.3-14.1-18.2-18.8L360.6,99c9.4,5.6,18.2,12.4,25.9,20.4
	C394.1,127.3,400.8,136.1,406.2,145.8z"/>
<path class="st1" d="M101.1,189.5c-13.9,0-25.3,11.3-25.3,25.3v164.2c0,13.9,11.3,25.3,25.3,25.3c13.9,0,25.3-11.3,25.3-25.3V214.7
	C126.3,200.8,115,189.5,101.1,189.5z"/>
<circle class="st1" cx="101.1" cy="138.9" r="28.4"/>
<path class="st14" d="M296.8,265.3c-15.8,0-27.4-6.3-34.3-11.5l0,0c-14.3-10.9-22.5-27.4-22.5-45.3c0-31.3,25.5-56.8,56.8-56.8
	s56.8,25.5,56.8,56.8S328.2,265.3,296.8,265.3z M270.2,243.7c5.4,4.1,14.4,8.9,26.7,8.9c24.4,0,44.2-19.8,44.2-44.2
	s-19.8-44.2-44.2-44.2c-24.4,0-44.2,19.8-44.2,44.2C252.6,222.4,259,235.2,270.2,243.7L270.2,243.7z"/>
<path class="st1" d="M296.8,341.1c-29.2,0-56.9-9.3-80.1-27c-33.4-25.3-52.5-63.8-52.5-105.7c0-73.1,59.5-132.6,132.6-132.6
	s132.6,59.5,132.6,132.6S370,341.1,296.8,341.1z M296.8,88.4c-66.2,0-120,53.8-120,120c0,37.9,17.3,72.7,47.5,95.6l0,0
	c21,16,46.1,24.4,72.5,24.4c66.2,0,120-53.8,120-120S363,88.4,296.8,88.4z"/>
<path class="st1" d="M296.8,164.2c-3.5,0-6.3-2.8-6.3-6.3V82.1c0-3.5,2.8-6.3,6.3-6.3s6.3,2.8,6.3,6.3v75.8
	C303.2,161.4,300.3,164.2,296.8,164.2z"/>
<path class="st1" d="M271.6,171c-2.2,0-4.3-1.1-5.5-3.2l-37.9-65.6c-1.8-3-0.7-6.9,2.3-8.6c3-1.7,6.9-0.7,8.6,2.3l37.9,65.6
	c1.8,3,0.7,6.9-2.3,8.6C273.7,170.7,272.7,171,271.6,171z"/>
<path class="st1" d="M253.1,189.5c-1.1,0-2.2-0.3-3.2-0.8l-65.6-37.9c-3-1.7-4.1-5.6-2.3-8.6c1.7-3,5.6-4,8.6-2.3l65.6,37.9
	c3,1.7,4.1,5.6,2.3,8.6C257.4,188.3,255.3,189.5,253.1,189.5z"/>
<path class="st1" d="M246.3,214.7h-75.8c-3.5,0-6.3-2.8-6.3-6.3c0-3.5,2.8-6.3,6.3-6.3h75.8c3.5,0,6.3,2.8,6.3,6.3
	C252.6,211.9,249.8,214.7,246.3,214.7z"/>
<path class="st1" d="M187.4,277.9c-2.2,0-4.3-1.1-5.5-3.2c-1.8-3-0.7-6.9,2.3-8.6l65.6-37.9c3-1.7,6.9-0.7,8.6,2.3
	c1.8,3,0.7,6.9-2.3,8.6L190.6,277C189.6,277.6,188.5,277.9,187.4,277.9z"/>
<path class="st1" d="M233.7,324.1c-1.1,0-2.2-0.3-3.2-0.8c-3-1.7-4.1-5.6-2.3-8.6l37.9-65.6c1.7-3,5.6-4,8.6-2.3
	c3,1.7,4.1,5.6,2.3,8.6L239.2,321C238,323,235.8,324.1,233.7,324.1z"/>
<path class="st1" d="M296.8,341.1c-3.5,0-6.3-2.8-6.3-6.3v-75.8c0-3.5,2.8-6.3,6.3-6.3s6.3,2.8,6.3,6.3v75.8
	C303.2,338.2,300.3,341.1,296.8,341.1z"/>
<path class="st1" d="M360,324.1c-2.2,0-4.3-1.1-5.5-3.2l-37.9-65.6c-1.8-3-0.7-6.9,2.3-8.6c3-1.8,6.9-0.7,8.6,2.3l37.9,65.6
	c1.8,3,0.7,6.9-2.3,8.6C362.1,323.9,361.1,324.1,360,324.1z"/>
<path class="st1" d="M406.2,277.9c-1.1,0-2.2-0.3-3.2-0.8l-65.6-37.9c-3-1.7-4.1-5.6-2.3-8.6s5.6-4,8.6-2.3l65.6,37.9
	c3,1.7,4.1,5.6,2.3,8.6C410.5,276.8,408.4,277.9,406.2,277.9z"/>
<path class="st1" d="M423.2,214.7h-75.8c-3.5,0-6.3-2.8-6.3-6.3c0-3.5,2.8-6.3,6.3-6.3h75.8c3.5,0,6.3,2.8,6.3,6.3
	C429.5,211.9,426.6,214.7,423.2,214.7z"/>
<path class="st1" d="M340.6,189.5c-2.2,0-4.3-1.1-5.5-3.2c-1.8-3-0.7-6.9,2.3-8.6l65.6-37.9c3-1.8,6.9-0.7,8.6,2.3
	c1.8,3,0.7,6.9-2.3,8.6l-65.6,37.9C342.8,189.2,341.7,189.5,340.6,189.5z"/>
<path class="st1" d="M322.1,171c-1.1,0-2.2-0.3-3.2-0.8c-3-1.7-4.1-5.6-2.3-8.6l37.9-65.6c1.7-3,5.6-4,8.6-2.3
	c3,1.7,4.1,5.6,2.3,8.6l-37.9,65.6C326.4,169.8,324.3,171,322.1,171z"/>
</svg>
